<svg height="512pt" viewBox="0 0 512 512.464" width="512pt" xmlns="http://www.w3.org/2000/svg"><path d="m232.28125 320.28125-50.402344-22.082031-17.773437-23.695313c11.964843-6.917968 20.125-19.71875 20.125-34.503906v-72c0-22.054688-17.941407-40-40-40h-32c-22.054688 0-40 17.945312-40 40v72c0 14.785156 8.160156 27.585938 20.128906 34.503906l-17.671875 23.558594-49.335938 19.777344c-15.261718 6.113281-25.121093 20.6875-25.121093 37.128906v149.03125c0 4.414062 3.578125 7.992188 7.984375 8l240 .464844h.015625c2.121093 0 4.152343-.839844 5.65625-2.335938 1.503906-1.503906 2.34375-3.542968 2.34375-5.664062v-147.542969c0-15.890625-9.398438-30.265625-23.949219-36.640625zm-88.449219 156.808594-15.601562 15.597656-15.597657-15.597656 15.222657-129.394532.375-.382812zm-55.601562-157.683594 27.167969 18.113281-16.238282 16.25-10.929687-27.304687zm52.832031 18.113281 27.167969-18.113281v7.058594l-10.917969 27.304687zm-52.832031-169.519531c0-13.230469 10.769531-24 24-24h32c13.234375 0 24 10.769531 24 24v24h-24c-13.230469 0-24-10.769531-24-24v-8h-16v8c0 22.054688 17.945312 40 40 40h24v32c0 13.230469-10.765625 24-24 24h-32c-13.230469 0-24-10.769531-24-24zm24 112h32c1.273437 0 2.472656-.257812 3.722656-.375l16.808594 22.40625-36.53125 24.351562-36.527344-24.351562 16.808594-22.40625c1.25.117188 2.449219.375 3.71875.375zm-96 74.96875c0-9.863281 5.914062-18.609375 15.074219-22.28125l40.925781-16.398438v11.710938c0 1.015625.195312 2.023438.570312 2.976562l16 40c1 2.496094 3.183594 4.328126 5.824219 4.863282.535156.105468 1.070312.160156 1.605469.160156 2.105469 0 4.144531-.832031 5.65625-2.34375l7.707031-7.703125-13.304688 113.117187c-.289062 2.433594.558594 4.859376 2.285157 6.59375l10.539062 10.535157-44.882812-.09375v-96.105469h-16v96.078125l-32-.0625zm224 141.480469-32-.066407v-96.382812h-16v96.351562l-44.949219-.085937 10.605469-10.609375c1.730469-1.726562 2.578125-4.160156 2.289062-6.59375l-13.304687-113.117188 7.703125 7.703126c1.515625 1.519531 3.554687 2.351562 5.65625 2.351562.539062 0 1.074219-.054688 1.609375-.167969 2.632812-.535156 4.824218-2.367187 5.824218-4.863281l16-40c.375-.945312.566407-1.953125.566407-2.96875v-11.304688l41.632812 18.234376c8.730469 3.832031 14.367188 12.453124 14.367188 21.992187zm0 0"/><path d="m504.230469 0h-472c-4.414063 0-8 3.585938-8 8v32c0 4.414062 3.585937 8 8 8h16v88h16v-88h344v-16h-368v-16h456v16h-72v16h48v296h-200v16h16v33.472656c-9.285157 3.3125-16 12.113282-16 22.527344 0 13.230469 10.769531 24 24 24 13.234375 0 24-10.769531 24-24 0-10.414062-6.710938-19.214844-16-22.527344v-33.472656h176c4.425781 0 8-3.585938 8-8v-304h16c4.425781 0 8-3.585938 8-8v-32c0-4.414062-3.574219-8-8-8zm-208 424c-4.414063 0-8-3.59375-8-8s3.585937-8 8-8c4.417969 0 8 3.59375 8 8s-3.582031 8-8 8zm0 0"/><path d="m240.230469 120c-4.414063 0-8 3.585938-8 8v32c0 4.414062 3.585937 8 8 8h48v-16h-40v-16h32c4.425781 0 8-3.585938 8-8v-32c0-4.414062-3.574219-8-8-8h-48v16h40v16zm0 0"/><path d="m368.230469 152v16h48c4.425781 0 8-3.585938 8-8v-32c0-4.414062-3.574219-8-8-8h-32v-16h40v-16h-48c-4.421875 0-8 3.585938-8 8v32c0 4.414062 3.578125 8 8 8h32v16zm0 0"/><path d="m320.230469 104v16h-16v16h16v16h16v-16h16v-16h-16v-16zm0 0"/><path d="m280.230469 224h32v16h-32zm0 0"/><path d="m280.230469 256h32v16h-32zm0 0"/><path d="m336.230469 216v16h16v-8h24v16h-16c-4.421875 0-8 3.585938-8 8v24h16v-16h16c4.425781 0 8-3.585938 8-8v-32c0-4.414062-3.574219-8-8-8h-40c-4.421875 0-8 3.585938-8 8zm0 0"/><path d="m352.230469 288h16v16h-16zm0 0"/></svg>