<svg height="512pt" viewBox="0 -16 512 512" width="512pt" xmlns="http://www.w3.org/2000/svg"><path d="m509.777344 451.128906-16-16.664062c-1.511719-1.578125-3.601563-2.464844-5.777344-2.464844v-352c0-8.824219-7.175781-16-16-16h-64v-24c0-8.824219-7.175781-16-16-16h-64v-8c0-8.824219-7.175781-16-16-16h-112c-8.824219 0-16 7.175781-16 16v48h-64v-32c0-8.824219-7.175781-16-16-16h-64c-8.824219 0-16 7.175781-16 16v400c-2.128906 0-4.160156.839844-5.65625 2.34375l-16 16c-1.503906 1.496094-2.34375 3.535156-2.34375 5.65625v16c0 4.414062 3.574219 8 8 8h496c4.425781 0 8-3.585938 8-8v-15.335938c0-2.0625-.800781-4.046874-2.222656-5.535156zm-181.777344-19.128906v-24h64v24zm-128 0v-32h112v32zm-80 0v-16h64v16zm-80-360h64v16h-64zm432 288h-64v-32h64zm-64 16h64v24h-64zm64-64h-64v-200h64zm-80 8v72h-64v-288h64zm-208-136h-64v-16h64zm-64 184v-168h64v200h-64zm80 0h112v16h-112zm112-64h-16v16h16v32h-112v-32h80v-16h-80v-160h112zm0-176h-112v-16h112zm-128 8v16h-64v-40h64zm-144-32h64v256h-64zm0 272h64v16h-64zm368 40h64v16h-64zm64-336v16h-64v-16zm-80-40v48h-64v-48zm-192-24h112v80h-112zm-16 64v16h-64v-16zm-80-48v24h-64v-24zm-64 376h64v24h-64zm456 56h-480v-4.6875l11.3125-11.3125h457.28125l11.40625 11.878906zm0 0"/><path d="m232 184h48v16h-48zm0 0"/><path d="m232 216h48v16h-48zm0 0"/><path d="m232 248h48v16h-48zm0 0"/><path d="m344 136h32v16h-32zm0 0"/></svg>